HIERARCHY
ROOT Hips
{
	OFFSET 0.000000 0.000000 0.000000
	CHANNELS 6 Xposition Yposition Zposition Yrotation Xrotation Zrotation
	JOINT Chest
	{
		OFFSET 0.000000 -0.009282 11.569106
		CHANNELS 6 Xposition Yposition Zposition Yrotation Xrotation Zrotation
		JOINT Chest2
		{
			OFFSET -0.000000 0.016863 9.269641
			CHANNELS 6 Xposition Yposition Zposition Yrotation Xrotation Zrotation
			JOINT Chest3
			{
				OFFSET -0.000000 0.000000 8.374491
				CHANNELS 6 Xposition Yposition Zposition Yrotation Xrotation Zrotation
				JOINT Chest4
				{
					OFFSET -0.000000 0.000000 8.374493
					CHANNELS 6 Xposition Yposition Zposition Yrotation Xrotation Zrotation
					JOINT Neck
					{
						OFFSET -0.000000 0.000001 12.152554
						CHANNELS 6 Xposition Yposition Zposition Yrotation Xrotation Zrotation
						JOINT Head
						{
							OFFSET -0.000000 0.040100 7.802319
							CHANNELS 6 Xposition Yposition Zposition Yrotation Xrotation Zrotation
							End Site
							{
								OFFSET -0.000000 0.020946 14.853096
							}
						}
					}
					JOINT RightCollar
					{
						OFFSET 2.894404 0.000001 6.791374
						CHANNELS 6 Xposition Yposition Zposition Yrotation Xrotation Zrotation
						JOINT RightShoulder
						{
							OFFSET 13.574684 0.000001 0.000000
							CHANNELS 6 Xposition Yposition Zposition Yrotation Xrotation Zrotation
							JOINT RightElbow
							{
								OFFSET 23.923903 0.000002 0.000000
								CHANNELS 6 Xposition Yposition Zposition Yrotation Xrotation Zrotation
								JOINT RightWrist
								{
									OFFSET 19.846718 0.012767 0.000000
									CHANNELS 6 Xposition Yposition Zposition Yrotation Xrotation Zrotation
									End Site
									{
										OFFSET 14.973145 0.000001 0.000000
									}
								}
							}
						}
					}
					JOINT LeftCollar
					{
						OFFSET -2.894404 0.000000 6.791374
						CHANNELS 6 Xposition Yposition Zposition Yrotation Xrotation Zrotation
						JOINT LeftShoulder
						{
							OFFSET -13.574684 -0.000001 0.000000
							CHANNELS 6 Xposition Yposition Zposition Yrotation Xrotation Zrotation
							JOINT LeftElbow
							{
								OFFSET -23.923903 -0.000002 0.000000
								CHANNELS 6 Xposition Yposition Zposition Yrotation Xrotation Zrotation
								JOINT LeftWrist
								{
									OFFSET -19.846718 0.012763 0.000000
									CHANNELS 6 Xposition Yposition Zposition Yrotation Xrotation Zrotation
									End Site
									{
										OFFSET -14.973145 -0.000001 0.000000
									}
								}
							}
						}
					}
				}
			}
		}
	}
	JOINT RightHip
	{
		OFFSET 9.469263 0.004643 0.045487
		CHANNELS 6 Xposition Yposition Zposition Yrotation Xrotation Zrotation
		JOINT RightKnee
		{
			OFFSET 0.000000 0.002666 -40.478676
			CHANNELS 6 Xposition Yposition Zposition Yrotation Xrotation Zrotation
			JOINT RightAnkle
			{
				OFFSET 0.000000 0.049110 -35.224068
				CHANNELS 6 Xposition Yposition Zposition Yrotation Xrotation Zrotation
				JOINT RightToe
				{
					OFFSET -0.000001 12.539530 -6.151390
					CHANNELS 6 Xposition Yposition Zposition Yrotation Xrotation Zrotation
					End Site
					{
						OFFSET -0.000001 5.044996 -1.291870
					}
				}
			}
		}
	}
	JOINT LeftHip
	{
		OFFSET -9.469263 0.004641 0.045487
		CHANNELS 6 Xposition Yposition Zposition Yrotation Xrotation Zrotation
		JOINT LeftKnee
		{
			OFFSET 0.000000 0.002666 -40.478676
			CHANNELS 6 Xposition Yposition Zposition Yrotation Xrotation Zrotation
			JOINT LeftAnkle
			{
				OFFSET 0.000000 0.049110 -35.224068
				CHANNELS 6 Xposition Yposition Zposition Yrotation Xrotation Zrotation
				JOINT LeftToe
				{
					OFFSET -0.000001 12.539530 -6.151390
					CHANNELS 6 Xposition Yposition Zposition Yrotation Xrotation Zrotation
					End Site
					{
						OFFSET -0.000001 5.044996 -1.291870
					}
				}
			}
		}
	}
}
MOTION
Frames: 5
Frame Time: 0.016667
11.283773 5.734633 83.006233 -6.540557 -3.473352 -113.386495 0.000001 -0.009280 11.569105 -0.368662 -3.715171 -0.074034 -0.000001 0.016864 9.269638 -0.162600 -1.648950 -0.031198 0.000001 -0.000001 8.374480 -0.162600 -1.648950 -0.031198 -0.000000 0.000000 8.374496 -0.122026 -1.236704 -0.023835 -0.000000 0.000001 12.152559 0.918496 -17.447394 -1.633115 -0.000000 0.040093 7.802317 1.136661 3.785712 -2.701104 2.894404 0.000000 6.791373 7.217826 -0.944653 1.361131 13.574684 0.000001 -0.000011 62.854187 -5.486008 36.414331 23.923899 0.000010 -0.000004 -1.119373 -38.697666 92.821601 19.846712 0.012755 0.000007 -33.055766 40.863307 49.504979 -2.894403 0.000000 6.791377 -9.657689 -2.286886 -5.791106 -13.574685 -0.000002 -0.000011 -51.453533 -1.922595 -40.982778 -23.923914 -0.000001 -0.000007 -19.514750 -47.454307 -74.950985 -19.846712 0.012751 -0.000011 42.385094 26.155339 -52.884451 9.469263 0.004644 0.045488 0.254462 -10.435699 -2.283433 -0.000044 0.002664 -40.478760 0.083834 -2.142417 0.935960 -0.000012 0.049096 -35.223812 1.160601 5.583139 0.382535 -0.000000 12.539526 -6.151390 0.003912 -0.016878 -0.008487 -9.469262 0.004643 0.045484 0.130888 -10.772588 1.575988 -0.000097 0.002666 -40.478710 0.464591 -0.771268 2.102085 0.000056 0.049100 -35.223862 -0.752986 4.433504 -1.249644 -0.000001 12.539532 -6.151391 0.002841 -0.017171 0.007955 
11.272334 5.742017 83.006599 -6.596554 -3.493220 -113.380232 0.000001 -0.009283 11.569104 -0.367272 -3.720108 -0.078249 0.000002 0.016862 9.269663 -0.162182 -1.651272 -0.032753 0.000002 -0.000002 8.374490 -0.162181 -1.651272 -0.032753 -0.000000 0.000000 8.374512 -0.121716 -1.238445 -0.025003 0.000000 0.000001 12.152568 0.924124 -17.834771 -1.643418 0.000001 0.040103 7.802322 1.149176 3.066405 -2.717075 2.894404 0.000000 6.791376 7.241703 -0.911528 1.343471 13.574685 0.000001 0.000000 62.815918 -5.502876 36.344646 23.923897 0.000010 -0.000006 -1.092493 -38.795908 92.769521 19.846714 0.012756 0.000003 -33.093896 40.897428 49.527952 -2.894404 -0.000000 6.791378 -9.697090 -2.270959 -5.751933 -13.574680 -0.000000 -0.000011 -51.470909 -1.931039 -40.906413 -23.923906 0.000002 -0.000014 -19.495779 -47.518210 -74.923173 -19.846712 0.012753 -0.000018 42.384643 26.179343 -52.875824 9.469264 0.004643 0.045488 0.242043 -10.471450 -2.296591 -0.000044 0.002664 -40.478775 0.097211 -2.172923 0.954019 -0.000013 0.049095 -35.223808 1.151907 5.590112 0.377995 0.000001 12.539526 -6.151393 0.003914 -0.017623 -0.009046 -9.469261 0.004642 0.045487 0.122463 -10.809980 1.550441 -0.000098 0.002665 -40.478725 0.472851 -0.795557 2.116105 0.000054 0.049100 -35.223869 -0.753230 4.436435 -1.249531 -0.000003 12.539536 -6.151396 0.001267 -0.017192 0.007592 
11.253075 5.748877 83.006943 -6.637439 -3.510766 -113.376578 0.000001 -0.009281 11.569103 -0.370654 -3.730988 -0.081094 0.000000 0.016864 9.269645 -0.164199 -1.656322 -0.033844 0.000001 0.000000 8.374479 -0.164199 -1.656322 -0.033848 0.000000 0.000001 8.374489 -0.123232 -1.242232 -0.025825 0.000000 0.000002 12.152561 0.944004 -18.217026 -1.646672 -0.000001 0.040099 7.802315 1.190240 2.356859 -2.715481 2.894404 0.000001 6.791376 7.257540 -0.904920 1.333263 13.574682 0.000000 -0.000004 62.773796 -5.539818 36.298473 23.923914 0.000007 -0.000001 -1.143799 -38.833665 92.798925 19.846722 0.012762 -0.000009 -33.128661 40.931012 49.572796 -2.894403 0.000001 6.791381 -9.723702 -2.270434 -5.712221 -13.574687 -0.000002 0.000002 -51.457074 -1.925458 -40.867248 -23.923910 0.000004 0.000007 -19.451938 -47.581475 -74.946908 -19.846712 0.012771 -0.000009 42.389018 26.202378 -52.901147 9.469264 0.004643 0.045479 0.245963 -10.490090 -2.276757 -0.000044 0.002664 -40.478786 0.093128 -2.195330 0.942033 -0.000012 0.049094 -35.223804 1.145825 5.588074 0.367875 -0.000001 12.539528 -6.151403 0.006658 -0.019002 -0.007591 -9.469263 0.004643 0.045480 0.121160 -10.822419 1.528091 -0.000098 0.002664 -40.478718 0.475457 -0.829341 2.132488 0.000053 0.049102 -35.223869 -0.750223 4.440917 -1.234236 -0.000001 12.539536 -6.151391 -0.000942 -0.019110 0.007369 
11.227748 5.756029 83.008278 -6.668971 -3.521545 -113.371380 0.000001 -0.009281 11.569100 -0.382553 -3.739998 -0.075727 -0.000000 0.016864 9.269643 -0.169781 -1.660355 -0.031337 0.000001 0.000002 8.374475 -0.169780 -1.660355 -0.031337 -0.000000 0.000000 8.374496 -0.127411 -1.245258 -0.023961 -0.000001 -0.000001 12.152567 0.976967 -18.538310 -1.648014 -0.000001 0.040106 7.802329 1.254973 1.760712 -2.706508 2.894403 -0.000000 6.791371 7.277823 -0.943562 1.331952 13.574685 0.000002 -0.000016 62.736278 -5.554458 36.263605 23.923901 0.000014 0.000008 -1.197993 -38.856058 92.860219 19.846716 0.012765 -0.000001 -33.166948 40.948951 49.607633 -2.894404 -0.000001 6.791368 -9.735626 -2.292897 -5.697631 -13.574694 -0.000000 -0.000003 -51.425297 -1.951014 -40.835707 -23.923910 -0.000002 -0.000005 -19.443971 -47.623596 -74.960930 -19.846714 0.012750 -0.000001 42.419166 26.217956 -52.961925 9.469265 0.004643 0.045483 0.246973 -10.492200 -2.267860 -0.000044 0.002664 -40.478790 0.092601 -2.221107 0.938178 -0.000012 0.049097 -35.223812 1.138208 5.583383 0.358369 -0.000001 12.539527 -6.151397 0.007624 -0.019632 -0.006442 -9.469263 0.004641 0.045478 0.122986 -10.823710 1.501934 -0.000100 0.002665 -40.478714 0.473083 -0.854311 2.151375 0.000055 0.049104 -35.223854 -0.747417 4.434492 -1.223043 -0.000001 12.539532 -6.151395 -0.002611 -0.018851 0.006444 
11.200897 5.763380 83.010971 -6.697476 -3.530237 -113.367036 0.000000 -0.009284 11.569101 -0.391040 -3.762195 -0.072396 0.000000 0.016864 9.269633 -0.173687 -1.669942 -0.030043 0.000000 0.000000 8.374485 -0.173688 -1.669941 -0.030043 -0.000000 -0.000000 8.374498 -0.130338 -1.252448 -0.023005 0.000001 0.000002 12.152562 0.993547 -18.785226 -1.641517 -0.000000 0.040104 7.802317 1.290991 1.302469 -2.688886 2.894405 0.000000 6.791378 7.279132 -0.981840 1.338651 13.574681 0.000001 0.000018 62.710781 -5.565546 36.247739 23.923891 0.000006 -0.000000 -1.222781 -38.868766 92.909943 19.846714 0.012771 -0.000001 -33.194576 40.957103 49.623749 -2.894404 -0.000000 6.791383 -9.753537 -2.305387 -5.691495 -13.574680 -0.000003 0.000002 -51.394933 -1.994684 -40.809861 -23.923903 -0.000003 0.000007 -19.434250 -47.647680 -74.983586 -19.846712 0.012753 -0.000010 42.456258 26.247963 -53.008446 9.469265 0.004641 0.045479 0.245172 -10.493767 -2.273034 -0.000045 0.002664 -40.478786 0.096263 -2.237986 0.947240 -0.000011 0.049099 -35.223816 1.130404 5.571786 0.352090 -0.000000 12.539527 -6.151398 0.006560 -0.019158 -0.006974 -9.469264 0.004640 0.045483 0.124531 -10.825915 1.493980 -0.000101 0.002666 -40.478710 0.469267 -0.867310 2.164513 0.000055 0.049103 -35.223854 -0.746471 4.419753 -1.224180 -0.000002 12.539531 -6.151393 -0.002113 -0.017548 0.006703 
